<?xml version="1.0" standalone="no"?>
<!DOCTYPE svg PUBLIC "-//W3C//DTD SVG 20010904//EN"
 "http://www.w3.org/TR/2001/REC-SVG-20010904/DTD/svg10.dtd">
<svg version="1.0" xmlns="http://www.w3.org/2000/svg"
 width="1100.000000pt" height="1100.000000pt" viewBox="0 0 1100.000000 1100.000000"
 preserveAspectRatio="xMidYMid meet">
<metadata>
Created by potrace 1.14, written by Peter Selinger 2001-2017
</metadata>
<g transform="translate(0.000000,1100.000000) scale(0.100000,-0.100000)"
fill="#000000" stroke="none">
<path d="M5219 10995 c-2 -1 -50 -6 -107 -9 -57 -4 -118 -8 -135 -11 -18 -2
-54 -7 -82 -10 -27 -2 -68 -7 -90 -10 -22 -3 -76 -10 -120 -16 -44 -6 -136
-22 -205 -36 -69 -13 -136 -26 -150 -28 -14 -2 -88 -20 -165 -40 -77 -20 -147
-38 -155 -40 -8 -2 -67 -20 -130 -39 -431 -131 -873 -332 -1285 -586 -196
-120 -482 -328 -653 -476 -15 -13 -38 -33 -52 -44 -137 -115 -438 -417 -532
-533 -18 -22 -38 -46 -45 -52 -42 -43 -244 -303 -293 -377 -14 -21 -28 -38
-32 -38 -5 0 -8 -6 -8 -14 0 -8 -4 -16 -8 -18 -8 -3 -157 -233 -203 -313 -123
-214 -261 -484 -307 -600 -11 -27 -32 -76 -46 -107 -14 -31 -26 -60 -26 -63 0
-4 -6 -21 -14 -38 -68 -152 -183 -531 -246 -807 -33 -147 -85 -462 -96 -585
-2 -33 -7 -69 -9 -80 -26 -128 -26 -888 -1 -1045 2 -14 7 -54 10 -90 3 -36 8
-76 10 -90 3 -14 7 -45 10 -70 9 -67 15 -104 36 -220 51 -272 107 -489 190
-740 130 -389 283 -724 498 -1090 31 -52 60 -96 64 -98 4 -2 8 -8 8 -13 0 -5
37 -64 83 -131 45 -66 87 -128 92 -137 6 -9 16 -23 22 -31 7 -8 45 -58 85
-110 66 -87 192 -243 228 -281 8 -9 53 -58 100 -109 81 -89 267 -274 338 -336
18 -16 47 -43 65 -59 189 -179 586 -464 892 -640 167 -97 455 -239 615 -305
58 -23 119 -49 137 -57 57 -24 315 -113 423 -144 113 -33 392 -104 450 -114
19 -3 82 -15 140 -26 58 -12 116 -22 130 -23 23 -3 83 -11 150 -22 14 -2 52
-6 85 -9 33 -4 74 -8 90 -10 190 -26 894 -26 1056 0 41 6 133 17 149 17 8 0
35 4 60 8 25 5 70 11 100 15 30 3 62 8 70 10 8 2 31 7 50 10 531 84 1203 323
1710 606 242 135 598 374 745 498 17 14 51 42 75 61 24 19 54 44 66 55 12 11
44 39 72 62 141 120 393 372 507 507 28 33 57 66 66 75 29 30 167 207 250 322
73 99 113 160 235 349 120 187 300 544 407 805 127 312 260 754 302 1005 3 19
8 42 10 50 2 8 6 29 9 45 9 60 18 120 21 135 13 72 28 196 40 320 3 36 8 83
11 105 9 69 11 665 3 765 -9 125 -20 234 -25 273 -2 18 -6 50 -9 72 -16 145
-50 335 -110 605 -31 138 -161 558 -200 645 -7 17 -30 73 -51 125 -80 206
-203 457 -337 690 -72 126 -246 394 -258 398 -5 2 -9 8 -9 13 0 14 -218 299
-295 385 -5 6 -32 37 -60 69 -147 171 -401 423 -545 541 -19 16 -37 31 -40 34
-13 14 -214 174 -300 237 -380 280 -883 553 -1316 712 -133 49 -385 131 -449
147 -16 4 -34 8 -40 10 -255 67 -491 116 -675 139 -30 4 -63 9 -72 10 -18 4
-87 11 -178 20 -30 3 -75 8 -100 11 -51 6 -696 15 -701 9z"/>
</g>
</svg>
